<svg width="132" height="30" viewBox="0 0 132 30" fill="none" xmlns="http://www.w3.org/2000/svg">
<path fill-rule="evenodd" clip-rule="evenodd" d="M36.9231 0V30H48.4616C50 30 53.0769 28.6154 53.0769 23.0769V6.92308C53.0769 1.15385 50.2476 0 48.4616 0H36.9231ZM43.8462 4.61538V25.3846C44.6154 25.3846 46.1539 24.9231 46.1539 23.0769V6.92308C46.1539 6.15385 45.6923 4.61538 43.8462 4.61538Z" fill="#D9D9D9"/>
<path d="M8.07692 0H0V30H8.07692V0Z" fill="#D9D9D9"/>
<path d="M17.3077 30V10.3846L20.7693 30H25.3846L27.6923 10.3846V30H34.6154V0H24.2308L23.077 13.8462L20.7693 0H10.3846V30H17.3077Z" fill="#D9D9D9"/>
<path fill-rule="evenodd" clip-rule="evenodd" d="M62.3077 9.22992V0H57.6923V17.3077L57.7577 17.226C57.7144 17.6319 57.6923 18.0442 57.6923 18.4615C57.6923 24.834 62.8583 30 69.2308 30C75.6033 30 80.7692 24.834 80.7692 18.4615C80.7692 12.089 75.6033 6.92308 69.2308 6.92308C66.6332 6.92308 64.2362 7.78142 62.3077 9.22992ZM76.1539 18.4615C76.1539 22.2851 73.0543 25.3846 69.2308 25.3846C65.4073 25.3846 62.3077 22.2851 62.3077 18.4615C62.3077 14.638 65.4073 11.5385 69.2308 11.5385C73.0543 11.5385 76.1539 14.638 76.1539 18.4615Z" fill="#D9D9D9"/>
<path fill-rule="evenodd" clip-rule="evenodd" d="M106.097 19.6154C106.135 19.2359 106.154 18.851 106.154 18.4616C106.154 12.089 100.988 6.9231 94.6154 6.9231C88.2428 6.9231 83.0769 12.089 83.0769 18.4616C83.0769 24.8341 88.2428 30 94.6154 30C97.8016 30 100.686 28.7085 102.774 26.6205L99.5107 23.3569C98.2579 24.6097 96.5271 25.3846 94.6154 25.3846C91.185 25.3846 88.3373 22.8897 87.788 19.6154H101.443C101.432 19.6817 101.42 19.7476 101.407 19.8132L101.538 19.6154H106.097ZM100.612 15C99.4152 12.9307 97.1779 11.5385 94.6154 11.5385C92.0528 11.5385 89.8155 12.9307 88.6185 15H100.612Z" fill="#D9D9D9"/>
<path fill-rule="evenodd" clip-rule="evenodd" d="M131.481 19.6154C131.519 19.2359 131.538 18.851 131.538 18.4616C131.538 12.089 126.373 6.9231 120 6.9231C113.627 6.9231 108.462 12.089 108.462 18.4616C108.462 24.8341 113.627 30 120 30C123.186 30 126.071 28.7085 128.159 26.6205L124.895 23.3569C123.643 24.6097 121.912 25.3846 120 25.3846C116.57 25.3846 113.722 22.8897 113.173 19.6154H126.827C126.816 19.6817 126.804 19.7476 126.791 19.8132L126.923 19.6154H131.481ZM125.997 15C124.8 12.9307 122.563 11.5385 120 11.5385C117.437 11.5385 115.2 12.9307 114.003 15H125.997Z" fill="#D9D9D9"/>
</svg>
