<svg width="65" height="36" viewBox="0 0 65 36" fill="none" xmlns="http://www.w3.org/2000/svg">
<rect x="0.862061" y="7.17236" width="64.1379" height="19.6552" rx="9.82759" fill="#CFEEFC"/>
<g filter="url(#filter0_d_120_146)">
<circle cx="15.8621" cy="17" r="15" fill="#D9D9D9"/>
</g>
<path fill-rule="evenodd" clip-rule="evenodd" d="M17.9684 13.5237C18.5278 13.8634 18.9987 14.3343 19.3384 14.8937L19.5506 14.5575L21.6858 11.1763L18.3046 13.3114L17.9684 13.5237ZM19.81 16.0314C19.8859 16.3418 19.9261 16.6662 19.9261 17C19.9261 17.3338 19.8859 17.6582 19.81 17.9686L20.1974 17.8811L24.098 17L20.1974 16.1189L19.81 16.0314ZM19.3384 19.1064C18.9987 19.6657 18.5278 20.1366 17.9684 20.4763L18.3046 20.6886L21.6858 22.8237L19.5506 19.4425L19.3384 19.1064ZM16.8307 20.9479C16.5203 21.0238 16.1959 21.0641 15.8621 21.0641C15.5283 21.0641 15.2039 21.0238 14.8935 20.9479L14.981 21.3353L15.8621 25.236L16.7432 21.3353L16.8307 20.9479ZM13.7557 20.4763C13.1963 20.1366 12.7254 19.6657 12.3858 19.1063L12.1735 19.4425L10.0384 22.8237L13.4196 20.6886L13.7557 20.4763ZM11.9142 17.9686C11.8383 17.6582 11.798 17.3338 11.798 17C11.798 16.6662 11.8383 16.3418 11.9142 16.0314L11.5268 16.1189L7.62611 17L11.5268 17.8811L11.9142 17.9686ZM12.3858 14.8937L12.1735 14.5575L10.0384 11.1763L13.4196 13.3114L13.7557 13.5237C13.1963 13.8634 12.7255 14.3343 12.3858 14.8937ZM14.8935 13.0521C15.2039 12.9762 15.5283 12.936 15.8621 12.936C16.1959 12.936 16.5203 12.9762 16.8307 13.0521L16.7432 12.6647L15.8621 8.76405L14.981 12.6647L14.8935 13.0521ZM25.0057 7.85638L22.9708 9.14138L18.6804 11.8507L17.7522 12.4368L17.5104 11.366L16.3923 6.41651L15.8621 4.06897L15.3318 6.41651L14.2138 11.366L13.9719 12.4368L13.0438 11.8507L8.75336 9.14138L6.71844 7.85638L8.00344 9.8913L10.7127 14.1817L11.2988 15.1098L10.2281 15.3517L5.27857 16.4697L2.93103 17L5.27857 17.5303L10.2281 18.6483L11.2988 18.8902L10.7127 19.8183L8.00344 24.1087L6.71844 26.1436L8.75336 24.8586L13.0438 22.1493L13.9719 21.5632L14.2138 22.634L15.3318 27.5835L15.8621 29.931L16.3923 27.5835L17.5104 22.634L17.7522 21.5632L18.6804 22.1493L22.9708 24.8586L25.0057 26.1436L23.7207 24.1087L21.0114 19.8183L20.4253 18.8902L21.496 18.6483L26.4456 17.5303L28.7931 17L26.4456 16.4697L21.496 15.3517L20.4253 15.1098L21.0114 14.1817L23.7207 9.8913L25.0057 7.85638ZM18.8916 17C18.8916 18.6732 17.5353 20.0296 15.8621 20.0296C14.1889 20.0296 12.8325 18.6732 12.8325 17C12.8325 15.3268 14.1889 13.9705 15.8621 13.9705C17.5353 13.9705 18.8916 15.3268 18.8916 17Z" fill="#F7B66E"/>
<defs>
<filter id="filter0_d_120_146" x="0.862061" y="0.965517" width="34.1379" height="34.1379" filterUnits="userSpaceOnUse" color-interpolation-filters="sRGB">
<feFlood flood-opacity="0" result="BackgroundImageFix"/>
<feColorMatrix in="SourceAlpha" type="matrix" values="0 0 0 0 0 0 0 0 0 0 0 0 0 0 0 0 0 0 127 0" result="hardAlpha"/>
<feOffset dx="2.06897" dy="1.03448"/>
<feGaussianBlur stdDeviation="1.03448"/>
<feComposite in2="hardAlpha" operator="out"/>
<feColorMatrix type="matrix" values="0 0 0 0 0 0 0 0 0 0 0 0 0 0 0 0 0 0 0.25 0"/>
<feBlend mode="normal" in2="BackgroundImageFix" result="effect1_dropShadow_120_146"/>
<feBlend mode="normal" in="SourceGraphic" in2="effect1_dropShadow_120_146" result="shape"/>
</filter>
</defs>
</svg>
