<svg width="31" height="31" viewBox="0 0 31 31" fill="none" xmlns="http://www.w3.org/2000/svg">
<path d="M13.9854 4.12765C14.5408 2.4181 14.8186 1.56333 15.2823 1.41267C15.4745 1.35022 15.6815 1.35022 15.8737 1.41267C16.3373 1.56333 16.6151 2.41811 17.1705 4.12766L19.1551 10.2354C19.3098 10.7116 19.3872 10.9497 19.5496 11.1122C19.6206 11.1832 19.7024 11.2426 19.7918 11.2882C19.9965 11.3925 20.2469 11.3925 20.7477 11.3925H27.1697C28.9672 11.3925 29.866 11.3925 30.1526 11.7869C30.2713 11.9504 30.3353 12.1473 30.3353 12.3493C30.3353 12.8369 29.6082 13.3652 28.154 14.4217L22.9584 18.1965C22.5533 18.4908 22.3507 18.638 22.2464 18.8427C22.2009 18.9322 22.1696 19.0283 22.1539 19.1274C22.118 19.3543 22.1954 19.5925 22.3501 20.0687L24.3346 26.1764C24.8901 27.886 25.1678 28.7407 24.8813 29.1352C24.7625 29.2987 24.595 29.4204 24.4028 29.4828C23.9391 29.6335 23.212 29.1052 21.7578 28.0486L16.5622 24.2738C16.1571 23.9795 15.9545 23.8323 15.7277 23.7964C15.6285 23.7807 15.5274 23.7807 15.4283 23.7964C15.2014 23.8323 14.9988 23.9795 14.5937 24.2738L9.39815 28.0486C7.94392 29.1052 7.21681 29.6335 6.75312 29.4828C6.56093 29.4204 6.39345 29.2987 6.27468 29.1352C5.9881 28.7407 6.26583 27.886 6.8213 26.1764L8.80581 20.0687C8.96056 19.5925 9.03793 19.3543 9.00199 19.1274C8.98628 19.0283 8.95506 18.9322 8.90948 18.8427C8.80518 18.638 8.60262 18.4908 8.1975 18.1965L3.00196 14.4217C1.54773 13.3652 0.820621 12.8369 0.820621 12.3493C0.820621 12.1473 0.884593 11.9504 1.00337 11.7869C1.28995 11.3925 2.18871 11.3925 3.98624 11.3925H10.4083C10.909 11.3925 11.1594 11.3925 11.3641 11.2882C11.4536 11.2426 11.5353 11.1832 11.6063 11.1122C11.7687 10.9497 11.8461 10.7116 12.0009 10.2354L13.9854 4.12765Z" fill="#E68F30" stroke="#F7F8F8" stroke-width="1.05643"/>
</svg>
